<svg id="my-svg" width="690.04296875" xmlns="http://www.w3.org/2000/svg" xmlns:xlink="http://www.w3.org/1999/xlink" class="flowchart" height="1263" viewBox="0 0 690.04296875 1263" role="graphics-document document" aria-roledescription="flowchart-v2" style="background-color: white;"><style>#my-svg{font-family:"trebuchet ms",verdana,arial,sans-serif;font-size:16px;fill:#333;}@keyframes edge-animation-frame{from{stroke-dashoffset:0;}}@keyframes dash{to{stroke-dashoffset:0;}}#my-svg .edge-animation-slow{stroke-dasharray:9,5!important;stroke-dashoffset:900;animation:dash 50s linear infinite;stroke-linecap:round;}#my-svg .edge-animation-fast{stroke-dasharray:9,5!important;stroke-dashoffset:900;animation:dash 20s linear infinite;stroke-linecap:round;}#my-svg .error-icon{fill:#552222;}#my-svg .error-text{fill:#552222;stroke:#552222;}#my-svg .edge-thickness-normal{stroke-width:1px;}#my-svg .edge-thickness-thick{stroke-width:3.5px;}#my-svg .edge-pattern-solid{stroke-dasharray:0;}#my-svg .edge-thickness-invisible{stroke-width:0;fill:none;}#my-svg .edge-pattern-dashed{stroke-dasharray:3;}#my-svg .edge-pattern-dotted{stroke-dasharray:2;}#my-svg .marker{fill:#333333;stroke:#333333;}#my-svg .marker.cross{stroke:#333333;}#my-svg svg{font-family:"trebuchet ms",verdana,arial,sans-serif;font-size:16px;}#my-svg p{margin:0;}#my-svg .label{font-family:"trebuchet ms",verdana,arial,sans-serif;color:#333;}#my-svg .cluster-label text{fill:#333;}#my-svg .cluster-label span{color:#333;}#my-svg .cluster-label span p{background-color:transparent;}#my-svg .label text,#my-svg span{fill:#333;color:#333;}#my-svg .node rect,#my-svg .node circle,#my-svg .node ellipse,#my-svg .node polygon,#my-svg .node path{fill:#ECECFF;stroke:#9370DB;stroke-width:1px;}#my-svg .rough-node .label text,#my-svg .node .label text,#my-svg .image-shape .label,#my-svg .icon-shape .label{text-anchor:middle;}#my-svg .node .katex path{fill:#000;stroke:#000;stroke-width:1px;}#my-svg .rough-node .label,#my-svg .node .label,#my-svg .image-shape .label,#my-svg .icon-shape .label{text-align:center;}#my-svg .node.clickable{cursor:pointer;}#my-svg .root .anchor path{fill:#333333!important;stroke-width:0;stroke:#333333;}#my-svg .arrowheadPath{fill:#333333;}#my-svg .edgePath .path{stroke:#333333;stroke-width:1px;}#my-svg .flowchart-link{stroke:#333333;fill:none;}#my-svg .edgeLabel{background-color:rgba(232,232,232, 0.8);text-align:center;}#my-svg .edgeLabel p{background-color:rgba(232,232,232, 0.8);}#my-svg .edgeLabel rect{opacity:0.5;background-color:rgba(232,232,232, 0.8);fill:rgba(232,232,232, 0.8);}#my-svg .labelBkg{background-color:rgba(232, 232, 232, 0.5);}#my-svg .cluster rect{fill:#ffffde;stroke:#aaaa33;stroke-width:1px;}#my-svg .cluster text{fill:#333;}#my-svg .cluster span{color:#333;}#my-svg div.mermaidTooltip{position:absolute;text-align:center;max-width:200px;padding:2px;font-family:"trebuchet ms",verdana,arial,sans-serif;font-size:12px;background:hsl(80, 100%, 96.2745098039%);border:1px solid #aaaa33;border-radius:2px;pointer-events:none;z-index:100;}#my-svg .flowchartTitleText{text-anchor:middle;font-size:18px;fill:#333;}#my-svg rect.text{fill:none;stroke-width:0;}#my-svg .icon-shape,#my-svg .image-shape{background-color:rgba(232,232,232, 0.8);text-align:center;}#my-svg .icon-shape p,#my-svg .image-shape p{background-color:rgba(232,232,232, 0.8);padding:2px;}#my-svg .icon-shape .label rect,#my-svg .image-shape .label rect{opacity:0.5;background-color:rgba(232,232,232, 0.8);fill:rgba(232,232,232, 0.8);}#my-svg .label-icon{display:inline-block;height:1em;overflow:visible;vertical-align:-0.125em;}#my-svg .node .label-icon path{fill:currentColor;stroke:revert;stroke-width:revert;}#my-svg .node .neo-node{stroke:#9370DB;}#my-svg [data-look="neo"].node rect,#my-svg [data-look="neo"].cluster rect,#my-svg [data-look="neo"].node polygon{stroke:#9370DB;filter:drop-shadow(1px 2px 2px rgba(185, 185, 185, 1));}#my-svg [data-look="neo"].swimlane.cluster rect{filter:none;}#my-svg [data-look="neo"].node path{stroke:#9370DB;stroke-width:1px;}#my-svg [data-look="neo"].node .outer-path{filter:drop-shadow(1px 2px 2px rgba(185, 185, 185, 1));}#my-svg [data-look="neo"].node .neo-line path{stroke:#9370DB;filter:none;}#my-svg [data-look="neo"].node circle{stroke:#9370DB;filter:drop-shadow(1px 2px 2px rgba(185, 185, 185, 1));}#my-svg [data-look="neo"].node circle .state-start{fill:#000000;}#my-svg [data-look="neo"].icon-shape .icon{fill:#9370DB;filter:drop-shadow(1px 2px 2px rgba(185, 185, 185, 1));}#my-svg [data-look="neo"].icon-shape .icon-neo path{stroke:#9370DB;filter:drop-shadow(1px 2px 2px rgba(185, 185, 185, 1));}#my-svg :root{--mermaid-font-family:"trebuchet ms",verdana,arial,sans-serif;}</style><g><marker id="my-svg_flowchart-v2-pointEnd" class="marker flowchart-v2" viewBox="0 0 10 10" refX="5" refY="5" markerUnits="userSpaceOnUse" markerWidth="8" markerHeight="8" orient="auto"><path d="M 0 0 L 10 5 L 0 10 z" class="arrowMarkerPath" style="stroke-width: 1; stroke-dasharray: 1, 0;"/></marker><marker id="my-svg_flowchart-v2-pointStart" class="marker flowchart-v2" viewBox="0 0 10 10" refX="4.5" refY="5" markerUnits="userSpaceOnUse" markerWidth="8" markerHeight="8" orient="auto"><path d="M 0 5 L 10 10 L 10 0 z" class="arrowMarkerPath" style="stroke-width: 1; stroke-dasharray: 1, 0;"/></marker><marker id="my-svg_flowchart-v2-pointEnd-margin" class="marker flowchart-v2" viewBox="0 0 11.5 14" refX="11.5" refY="7" markerUnits="userSpaceOnUse" markerWidth="10.5" markerHeight="14" orient="auto"><path d="M 0 0 L 11.5 7 L 0 14 z" class="arrowMarkerPath" style="stroke-width: 0; stroke-dasharray: 1, 0;"/></marker><marker id="my-svg_flowchart-v2-pointStart-margin" class="marker flowchart-v2" viewBox="0 0 11.5 14" refX="1" refY="7" markerUnits="userSpaceOnUse" markerWidth="11.5" markerHeight="14" orient="auto"><polygon points="0,7 11.5,14 11.5,0" class="arrowMarkerPath" style="stroke-width: 0; stroke-dasharray: 1, 0;"/></marker><marker id="my-svg_flowchart-v2-circleEnd" class="marker flowchart-v2" viewBox="0 0 10 10" refX="11" refY="5" markerUnits="userSpaceOnUse" markerWidth="11" markerHeight="11" orient="auto"><circle cx="5" cy="5" r="5" class="arrowMarkerPath" style="stroke-width: 1; stroke-dasharray: 1, 0;"/></marker><marker id="my-svg_flowchart-v2-circleStart" class="marker flowchart-v2" viewBox="0 0 10 10" refX="-1" refY="5" markerUnits="userSpaceOnUse" markerWidth="11" markerHeight="11" orient="auto"><circle cx="5" cy="5" r="5" class="arrowMarkerPath" style="stroke-width: 1; stroke-dasharray: 1, 0;"/></marker><marker id="my-svg_flowchart-v2-circleEnd-margin" class="marker flowchart-v2" viewBox="0 0 10 10" refY="5" refX="12.25" markerUnits="userSpaceOnUse" markerWidth="14" markerHeight="14" orient="auto"><circle cx="5" cy="5" r="5" class="arrowMarkerPath" style="stroke-width: 0; stroke-dasharray: 1, 0;"/></marker><marker id="my-svg_flowchart-v2-circleStart-margin" class="marker flowchart-v2" viewBox="0 0 10 10" refX="-2" refY="5" markerUnits="userSpaceOnUse" markerWidth="14" markerHeight="14" orient="auto"><circle cx="5" cy="5" r="5" class="arrowMarkerPath" style="stroke-width: 0; stroke-dasharray: 1, 0;"/></marker><marker id="my-svg_flowchart-v2-crossEnd" class="marker cross flowchart-v2" viewBox="0 0 11 11" refX="12" refY="5.2" markerUnits="userSpaceOnUse" markerWidth="11" markerHeight="11" orient="auto"><path d="M 1,1 l 9,9 M 10,1 l -9,9" class="arrowMarkerPath" style="stroke-width: 2; stroke-dasharray: 1, 0;"/></marker><marker id="my-svg_flowchart-v2-crossStart" class="marker cross flowchart-v2" viewBox="0 0 11 11" refX="-1" refY="5.2" markerUnits="userSpaceOnUse" markerWidth="11" markerHeight="11" orient="auto"><path d="M 1,1 l 9,9 M 10,1 l -9,9" class="arrowMarkerPath" style="stroke-width: 2; stroke-dasharray: 1, 0;"/></marker><marker id="my-svg_flowchart-v2-crossEnd-margin" class="marker cross flowchart-v2" viewBox="0 0 15 15" refX="17.7" refY="7.5" markerUnits="userSpaceOnUse" markerWidth="12" markerHeight="12" orient="auto"><path d="M 1,1 L 14,14 M 1,14 L 14,1" class="arrowMarkerPath" style="stroke-width: 2.5;"/></marker><marker id="my-svg_flowchart-v2-crossStart-margin" class="marker cross flowchart-v2" viewBox="0 0 15 15" refX="-3.5" refY="7.5" markerUnits="userSpaceOnUse" markerWidth="12" markerHeight="12" orient="auto"><path d="M 1,1 L 14,14 M 1,14 L 14,1" class="arrowMarkerPath" style="stroke-width: 2.5; stroke-dasharray: 1, 0;"/></marker><g class="root"><g class="clusters"/><g class="edgePaths"><path d="M188.898,47.5L188.815,51.583C188.732,55.667,188.565,63.833,188.482,71.417C188.398,79,188.398,86,188.398,89.5L188.398,93" id="my-svg-L_A_B_0" class="edge-thickness-normal edge-pattern-solid edge-thickness-normal edge-pattern-solid flowchart-link" style=";" data-edge="true" data-et="edge" data-id="L_A_B_0" data-points="W3sieCI6MTg4Ljg5ODQzNzUsInkiOjQ3LjUwMDAwMDAwMDAwMDAxNH0seyJ4IjoxODguMzk4NDM3NSwieSI6NzJ9LHsieCI6MTg4LjM5ODQzNzUsInkiOjk3fV0=" data-look="classic" marker-end="url(#my-svg_flowchart-v2-pointEnd)"/><path d="M128.639,339.241L118.077,355.367C107.515,371.494,86.39,403.747,75.828,444.04C65.266,484.333,65.266,532.667,65.266,556.833L65.266,581" id="my-svg-L_B_G_0" class="edge-thickness-normal edge-pattern-solid edge-thickness-normal edge-pattern-solid flowchart-link" style=";" data-edge="true" data-et="edge" data-id="L_B_G_0" data-points="W3sieCI6MTI4LjYzOTIxNTkwNTUyNDE3LCJ5IjozMzkuMjQwNzc4NDA1NTI0MTd9LHsieCI6NjUuMjY1NjI1LCJ5Ijo0MzZ9LHsieCI6NjUuMjY1NjI1LCJ5Ijo1ODV9XQ==" data-look="classic" marker-end="url(#my-svg_flowchart-v2-pointEnd)"/><path d="M248.158,339.241L258.72,355.367C269.282,371.494,290.407,403.747,300.969,425.373C311.531,447,311.531,458,311.531,463.5L311.531,469" id="my-svg-L_B_C_0" class="edge-thickness-normal edge-pattern-solid edge-thickness-normal edge-pattern-solid flowchart-link" style=";" data-edge="true" data-et="edge" data-id="L_B_C_0" data-points="W3sieCI6MjQ4LjE1NzY1OTA5NDQ3NTgzLCJ5IjozMzkuMjQwNzc4NDA1NTI0MTd9LHsieCI6MzExLjUzMTI1LCJ5Ijo0MzZ9LHsieCI6MzExLjUzMTI1LCJ5Ijo0NzN9XQ==" data-look="classic" marker-end="url(#my-svg_flowchart-v2-pointEnd)"/><path d="M255.459,694.928L244.97,710.44C234.482,725.952,213.505,756.976,203.016,796.655C192.527,836.333,192.527,884.667,192.527,908.833L192.527,933" id="my-svg-L_C_D_0" class="edge-thickness-normal edge-pattern-solid edge-thickness-normal edge-pattern-solid flowchart-link" style=";" data-edge="true" data-et="edge" data-id="L_C_D_0" data-points="W3sieCI6MjU1LjQ1ODk2NTQ2OTg2OTMsInkiOjY5NC45Mjc3MTU0Njk4NjkzfSx7IngiOjE5Mi41MjczNDM3NSwieSI6Nzg4fSx7IngiOjE5Mi41MjczNDM3NSwieSI6OTM3fV0=" data-look="classic" marker-end="url(#my-svg_flowchart-v2-pointEnd)"/><path d="M367.604,694.928L378.092,710.44C388.581,725.952,409.558,756.976,420.047,777.988C430.535,799,430.535,810,430.535,815.5L430.535,821" id="my-svg-L_C_E_0" class="edge-thickness-normal edge-pattern-solid edge-thickness-normal edge-pattern-solid flowchart-link" style=";" data-edge="true" data-et="edge" data-id="L_C_E_0" data-points="W3sieCI6MzY3LjYwMzUzNDUzMDEzMDcsInkiOjY5NC45Mjc3MTU0Njk4NjkzfSx7IngiOjQzMC41MzUxNTYyNSwieSI6Nzg4fSx7IngiOjQzMC41MzUxNTYyNSwieSI6ODI1fV0=" data-look="classic" marker-end="url(#my-svg_flowchart-v2-pointEnd)"/><path d="M373.765,1046.23L362.975,1061.858C352.186,1077.487,330.607,1108.743,319.817,1131.872C309.027,1155,309.027,1170,309.027,1177.5L309.027,1185" id="my-svg-L_E_P_0" class="edge-thickness-normal edge-pattern-solid edge-thickness-normal edge-pattern-solid flowchart-link" style=";" data-edge="true" data-et="edge" data-id="L_E_P_0" data-points="W3sieCI6MzczLjc2NDkyOTYyNzgsInkiOjEwNDYuMjI5NzczMzc3OH0seyJ4IjozMDkuMDI3MzQzNzUsInkiOjExNDB9LHsieCI6MzA5LjAyNzM0Mzc1LCJ5IjoxMTg5fV0=" data-look="classic" marker-end="url(#my-svg_flowchart-v2-pointEnd)"/><path d="M487.305,1046.23L498.095,1061.858C508.885,1077.487,530.464,1108.743,541.253,1129.872C552.043,1151,552.043,1162,552.043,1167.5L552.043,1173" id="my-svg-L_E_F_0" class="edge-thickness-normal edge-pattern-solid edge-thickness-normal edge-pattern-solid flowchart-link" style=";" data-edge="true" data-et="edge" data-id="L_E_F_0" data-points="W3sieCI6NDg3LjMwNTM4Mjg3MjIsInkiOjEwNDYuMjI5NzczMzc3OH0seyJ4Ijo1NTIuMDQyOTY4NzUsInkiOjExNDB9LHsieCI6NTUyLjA0Mjk2ODc1LCJ5IjoxMTc3fV0=" data-look="classic" marker-end="url(#my-svg_flowchart-v2-pointEnd)"/></g><g class="edgeLabels"><g class="edgeLabel"><g class="label" data-id="L_A_B_0" transform="translate(0, 0)"><foreignObject width="0" height="0"><div xmlns="http://www.w3.org/1999/xhtml" class="labelBkg" style="display: table-cell; white-space: nowrap; line-height: 1.5; max-width: 200px; text-align: center;"><span class="edgeLabel"></span></div></foreignObject></g></g><g class="edgeLabel" transform="translate(65.265625, 436)"><g class="label" data-id="L_B_G_0" transform="translate(-11.328125, -12)"><foreignObject width="22.65625" height="24"><div xmlns="http://www.w3.org/1999/xhtml" class="labelBkg" style="display: table-cell; white-space: nowrap; line-height: 1.5; max-width: 200px; text-align: center;"><span class="edgeLabel"><p>Yes</p></span></div></foreignObject></g></g><g class="edgeLabel" transform="translate(311.53125, 436)"><g class="label" data-id="L_B_C_0" transform="translate(-9.3984375, -12)"><foreignObject width="18.796875" height="24"><div xmlns="http://www.w3.org/1999/xhtml" class="labelBkg" style="display: table-cell; white-space: nowrap; line-height: 1.5; max-width: 200px; text-align: center;"><span class="edgeLabel"><p>No</p></span></div></foreignObject></g></g><g class="edgeLabel" transform="translate(192.52734375, 788)"><g class="label" data-id="L_C_D_0" transform="translate(-11.328125, -12)"><foreignObject width="22.65625" height="24"><div xmlns="http://www.w3.org/1999/xhtml" class="labelBkg" style="display: table-cell; white-space: nowrap; line-height: 1.5; max-width: 200px; text-align: center;"><span class="edgeLabel"><p>Yes</p></span></div></foreignObject></g></g><g class="edgeLabel" transform="translate(430.53515625, 788)"><g class="label" data-id="L_C_E_0" transform="translate(-9.3984375, -12)"><foreignObject width="18.796875" height="24"><div xmlns="http://www.w3.org/1999/xhtml" class="labelBkg" style="display: table-cell; white-space: nowrap; line-height: 1.5; max-width: 200px; text-align: center;"><span class="edgeLabel"><p>No</p></span></div></foreignObject></g></g><g class="edgeLabel" transform="translate(309.02734375, 1140)"><g class="label" data-id="L_E_P_0" transform="translate(-11.328125, -12)"><foreignObject width="22.65625" height="24"><div xmlns="http://www.w3.org/1999/xhtml" class="labelBkg" style="display: table-cell; white-space: nowrap; line-height: 1.5; max-width: 200px; text-align: center;"><span class="edgeLabel"><p>Yes</p></span></div></foreignObject></g></g><g class="edgeLabel" transform="translate(552.04296875, 1140)"><g class="label" data-id="L_E_F_0" transform="translate(-9.3984375, -12)"><foreignObject width="18.796875" height="24"><div xmlns="http://www.w3.org/1999/xhtml" class="labelBkg" style="display: table-cell; white-space: nowrap; line-height: 1.5; max-width: 200px; text-align: center;"><span class="edgeLabel"><p>No</p></span></div></foreignObject></g></g></g><g class="nodes"><g class="node default" id="my-svg-flowchart-A-0" data-look="classic" transform="translate(188.3984375, 27.5)"><g class="basic label-container outer-path"><path d="M-28.1015625 -19.5 C-12.508446659225704 -19.5, 3.084669181548591 -19.5, 28.1015625 -19.5 C28.1015625 -19.5, 28.1015625 -19.5, 28.1015625 -19.5 C28.562103242213063 -19.4852313547854, 29.02264398442612 -19.470462709570803, 29.3509317896239 -19.45993515863156 C29.61442867876175 -19.434515930637804, 29.8779255678996 -19.40909670264405, 30.595167152847864 -19.3399052695533 C31.040227941909937 -19.26795129267571, 31.48528873097201 -19.195997315798124, 31.82915575967676 -19.140403561325776 C32.08393295468868 -19.08225232914088, 32.3387101497006 -19.02410109695598, 33.04782688623539 -18.862249829261074 C33.35249805709451 -18.7718250250017, 33.657169227953624 -18.681400220742326, 34.246172751460605 -18.50658706670804 C34.64494783711358 -18.35983414895126, 35.043722922766555 -18.213081231194483, 35.4192690951478 -18.074876768247425 C35.86644086048155 -17.876927092613286, 36.31361262581531 -17.678977416979148, 36.56229541279238 -17.568892924097174 C36.90796172969412 -17.38855902797938, 37.25362804659586 -17.208225131861585, 37.67055476407678 -16.990714730406097 C38.08800540350665 -16.73765369957145, 38.50545604293652 -16.484592668736806, 38.7394930736057 -16.342718045390892 C39.068116425809386 -16.113484620769235, 39.39673977801308 -15.884251196147577, 39.76471784457871 -15.627565626425154 C40.12412867522897 -15.340945053305454, 40.48353950587922 -15.054324480185755, 40.742016208501866 -14.848196188198123 C40.97331553654995 -14.638136258309725, 41.20461486459802 -14.428076328421325, 41.66737223676799 -14.007812326905688 C41.99396151717897 -13.670582081402765, 42.320550797589945 -13.333351835899844, 42.53698344296865 -13.10986736009568 C42.73653820482214 -12.875458981834946, 42.93609296667564 -12.641050603574211, 43.34727640812658 -12.158051136245305 C43.60965861725677 -11.806482879521846, 43.87204082638696 -11.45491462279839, 44.094921464640635 -11.156274872382312 C44.29896552128035 -10.842808407882686, 44.50300957792007 -10.52934194338306, 44.77684637860425 -10.108655082055241 C44.9363292659125 -9.82547706624592, 45.095812153220756 -9.542299050436599, 45.390248974273504 -9.019496659696287 C45.535531870414495 -8.717813617303516, 45.68081476655549 -8.416130574910746, 45.93260864880834 -7.893275190886684 C46.04761938884572 -7.609196439412981, 46.16263012888309 -7.3251176879392785, 46.401696729970325 -6.734618561215508 C46.511027443225295 -6.405331872375085, 46.620358156480265 -6.076045183534663, 46.79558563421488 -5.548287939305138 C46.90094230559739 -5.146517289453411, 47.0062989769799 -4.744746639601683, 47.11265678754556 -4.339158212148133 C47.19083235882499 -3.9377431760411077, 47.269007930104415 -3.5363281399340822, 47.351607276581774 -3.1121979531509023 C47.41251330394746 -2.6398228321581287, 47.473419331313146 -2.1674477111653547, 47.51145520250937 -1.872449005199798 C47.53091960796646 -1.5692751788203059, 47.55038401342355 -1.266101352440814, 47.59154371591342 -0.6250057626472757 C47.59154371591342 -0.1685397366149623, 47.59154371591342 0.2879262894173511, 47.59154371591342 0.625005762647271 C47.560816595620274 1.1036054636980357, 47.53008947532713 1.5822051647488005, 47.51145520250937 1.8724490051997846 C47.45264947947856 2.328534580523273, 47.393843756447744 2.784620155846761, 47.351607276581774 3.1121979531508885 C47.25721443351325 3.5968852523733457, 47.162821590444715 4.081572551595803, 47.11265678754556 4.339158212148129 C47.040508265029715 4.614291797868509, 46.96835974251387 4.88942538358889, 46.79558563421489 5.548287939305125 C46.66028006656088 5.955806751064423, 46.52497449890687 6.363325562823721, 46.401696729970325 6.734618561215495 C46.29898776379591 6.9883116934090825, 46.19627879762149 7.2420048256026694, 45.93260864880834 7.893275190886679 C45.81315259378728 8.141328245088031, 45.693696538766226 8.389381299289383, 45.390248974273504 9.019496659696284 C45.21501675102427 9.330639216262016, 45.03978452777503 9.641781772827748, 44.77684637860425 10.108655082055236 C44.51149873259673 10.516300322142497, 44.24615108658921 10.923945562229756, 44.09492146464064 11.156274872382301 C43.81234880425375 11.534896494401796, 43.529776143866854 11.91351811642129, 43.34727640812658 12.158051136245302 C43.136623745560755 12.40549574017119, 42.92597108299492 12.652940344097077, 42.53698344296866 13.10986736009567 C42.23388460268214 13.42284179756909, 41.930785762395615 13.735816235042508, 41.66737223676799 14.007812326905684 C41.41101864835889 14.240625873154563, 41.154665059949785 14.473439419403444, 40.74201620850189 14.848196188198111 C40.3607808397636 15.152221249667665, 39.97954547102531 15.45624631113722, 39.76471784457871 15.627565626425152 C39.48627088978852 15.821798168312387, 39.20782393499834 16.016030710199622, 38.73949307360571 16.34271804539089 C38.50166950833547 16.486888088264106, 38.263845943065235 16.631058131137326, 37.67055476407678 16.990714730406093 C37.29409038120573 17.187115957812978, 36.91762599833468 17.38351718521986, 36.56229541279239 17.56889292409717 C36.260410635894125 17.7025283597363, 35.95852585899587 17.836163795375427, 35.419269095147804 18.07487676824742 C35.094140354642 18.19452715021069, 34.76901161413619 18.314177532173957, 34.24617275146062 18.506587066708033 C33.76991501536635 18.64793786285294, 33.29365727927209 18.78928865899785, 33.04782688623541 18.86224982926107 C32.62842126442178 18.957976425562574, 32.20901564260816 19.053703021864077, 31.829155759676766 19.140403561325773 C31.44932312494738 19.201811956062745, 31.069490490217994 19.263220350799717, 30.59516715284788 19.3399052695533 C30.12840930437606 19.38493283783693, 29.661651455904238 19.429960406120568, 29.3509317896239 19.45993515863156 C28.852130140631115 19.475930756656247, 28.35332849163833 19.491926354680935, 28.101562500000004 19.5 C28.101562500000004 19.5, 28.1015625 19.5, 28.1015625 19.5 C7.591606090623497 19.5, -12.918350318753006 19.5, -28.101562499999996 19.5 C-28.52715646366722 19.48635202995359, -28.952750427334447 19.472704059907176, -29.350931789623893 19.45993515863156 C-29.756737025004803 19.420787615626562, -30.16254226038571 19.38164007262157, -30.59516715284787 19.3399052695533 C-30.997996489565597 19.274778946380938, -31.400825826283324 19.20965262320858, -31.82915575967676 19.140403561325773 C-32.13210507219496 19.07125735767251, -32.43505438471316 19.00211115401925, -33.047826886235384 18.862249829261074 C-33.31852733775834 18.78190735618473, -33.58922778928129 18.701564883108382, -34.24617275146059 18.506587066708043 C-34.5232647408467 18.404614653203687, -34.8003567302328 18.302642239699328, -35.4192690951478 18.074876768247425 C-35.682762021369975 17.95823626604881, -35.94625494759215 17.841595763850197, -36.56229541279238 17.568892924097174 C-36.822166863043265 17.433318154956893, -37.082038313294156 17.297743385816617, -37.67055476407678 16.990714730406097 C-37.95057008594105 16.820967796739293, -38.230585407805314 16.65122086307249, -38.739493073605686 16.3427180453909 C-39.088438793987585 16.099308616469262, -39.43738451436949 15.855899187547625, -39.76471784457871 15.627565626425156 C-40.031874673386035 15.414515164793102, -40.29903150219336 15.201464703161049, -40.742016208501866 14.848196188198125 C-40.947764912180105 14.661340659329934, -41.15351361585835 14.474485130461742, -41.667372236767974 14.007812326905697 C-41.948079081401644 13.717959463360886, -42.22878592603531 13.428106599816076, -42.536983442968655 13.109867360095677 C-42.79191973023551 12.810404690786331, -43.04685601750237 12.510942021476986, -43.347276408126575 12.158051136245307 C-43.579561449035275 11.846810343030215, -43.811846489943974 11.535569549815124, -44.094921464640635 11.156274872382316 C-44.35349268442506 10.75904004269895, -44.61206390420949 10.361805213015586, -44.77684637860425 10.108655082055249 C-44.986657099829536 9.736114900880432, -45.19646782105482 9.363574719705616, -45.390248974273504 9.019496659696289 C-45.579392216920226 8.626736669323288, -45.768535459566955 8.233976678950286, -45.93260864880834 7.893275190886686 C-46.07475611489339 7.542168201422314, -46.216903580978446 7.191061211957941, -46.401696729970325 6.73461856121551 C-46.51621176325805 6.389717526445648, -46.63072679654577 6.044816491675785, -46.79558563421488 5.5482879393051325 C-46.920650730365594 5.071360524126919, -47.04571582651631 4.594433108948705, -47.11265678754556 4.339158212148136 C-47.170739208823186 4.040917254611614, -47.22882163010081 3.7426762970750915, -47.351607276581774 3.112197953150904 C-47.40237487518178 2.7184544836055613, -47.45314247378178 2.3247110140602185, -47.51145520250937 1.872449005199809 C-47.5413083325714 1.407462407470809, -47.57116146263343 0.9424758097418091, -47.59154371591342 0.6250057626472781 C-47.59154371591342 0.3264281665071379, -47.59154371591342 0.027850570366997673, -47.59154371591342 -0.6250057626472687 C-47.5712360312057 -0.9413143440380631, -47.550928346497976 -1.2576229254288576, -47.51145520250937 -1.8724490051997822 C-47.465605727564366 -2.2280484788702832, -47.41975625261937 -2.583647952540784, -47.351607276581774 -3.112197953150895 C-47.29286272785753 -3.413838795185102, -47.2341181791333 -3.715479637219308, -47.11265678754556 -4.339158212148126 C-47.00016697433517 -4.768130623312776, -46.88767716112479 -5.197103034477426, -46.79558563421489 -5.548287939305123 C-46.6736807853042 -5.915445921324122, -46.55177593639351 -6.28260390334312, -46.40169672997033 -6.734618561215485 C-46.289655676335734 -7.011362129859349, -46.177614622701135 -7.288105698503214, -45.93260864880834 -7.893275190886676 C-45.81844186495073 -8.130344960344857, -45.704275081093115 -8.367414729803038, -45.390248974273504 -9.019496659696282 C-45.230778482767356 -9.302652665503754, -45.071307991261214 -9.585808671311227, -44.77684637860425 -10.108655082055243 C-44.525987104066836 -10.49404229289193, -44.275127829529424 -10.879429503728616, -44.09492146464064 -11.156274872382308 C-43.916843875023915 -11.394882619266568, -43.73876628540719 -11.633490366150827, -43.34727640812659 -12.158051136245302 C-43.14999406537299 -12.389790201726994, -42.952711722619384 -12.621529267208688, -42.53698344296866 -13.10986736009567 C-42.31518218783419 -13.338895366243726, -42.09338093269971 -13.567923372391784, -41.667372236767996 -14.007812326905677 C-41.315369523067325 -14.327491878007184, -40.963366809366654 -14.647171429108692, -40.74201620850189 -14.848196188198107 C-40.414817916447056 -15.109128118999609, -40.087619624392225 -15.370060049801108, -39.76471784457872 -15.627565626425149 C-39.40185066910453 -15.880686059769086, -39.038983493630354 -16.133806493113024, -38.739493073605715 -16.342718045390885 C-38.462975285392055 -16.5103447536049, -38.18645749717839 -16.67797146181892, -37.67055476407679 -16.99071473040609 C-37.32342569368246 -17.17181174408403, -36.97629662328813 -17.352908757761973, -36.56229541279239 -17.56889292409717 C-36.31220006708143 -17.679602714828572, -36.06210472137047 -17.790312505559974, -35.419269095147804 -18.07487676824742 C-34.97789783624449 -18.237305471515032, -34.53652657734117 -18.399734174782644, -34.24617275146062 -18.506587066708033 C-33.77821181020037 -18.645475417696968, -33.31025086894012 -18.784363768685903, -33.04782688623541 -18.862249829261067 C-32.77017246848009 -18.925622638249315, -32.49251805072476 -18.988995447237567, -31.829155759676766 -19.140403561325773 C-31.574385936276748 -19.1815927706036, -31.31961611287673 -19.222781979881425, -30.595167152847882 -19.3399052695533 C-30.12763427358748 -19.385007604124997, -29.660101394327075 -19.430109938696695, -29.350931789623903 -19.45993515863156 C-29.02737398107606 -19.47031102778462, -28.70381617252822 -19.48068689693768, -28.101562500000007 -19.5 C-28.101562500000004 -19.5, -28.101562500000004 -19.5, -28.1015625 -19.5" stroke="none" stroke-width="0" fill="#ECECFF" style=""/><path d="M-28.1015625 -19.5 C-11.66355119101695 -19.5, 4.7744601179661 -19.5, 28.1015625 -19.5 M-28.1015625 -19.5 C-7.619625381599313 -19.5, 12.862311736801374 -19.5, 28.1015625 -19.5 M28.1015625 -19.5 C28.1015625 -19.5, 28.1015625 -19.5, 28.1015625 -19.5 M28.1015625 -19.5 C28.1015625 -19.5, 28.1015625 -19.5, 28.1015625 -19.5 M28.1015625 -19.5 C28.383888593276723 -19.49094635170302, 28.66621468655344 -19.48189270340604, 29.3509317896239 -19.45993515863156 M28.1015625 -19.5 C28.53251026638348 -19.486180343921024, 28.963458032766958 -19.472360687842045, 29.3509317896239 -19.45993515863156 M29.3509317896239 -19.45993515863156 C29.795605174553227 -19.417038051985415, 30.240278559482554 -19.37414094533927, 30.595167152847864 -19.3399052695533 M29.3509317896239 -19.45993515863156 C29.699322172265575 -19.426326357418855, 30.047712554907246 -19.392717556206147, 30.595167152847864 -19.3399052695533 M30.595167152847864 -19.3399052695533 C30.936731761652965 -19.284683752474795, 31.278296370458065 -19.229462235396287, 31.82915575967676 -19.140403561325776 M30.595167152847864 -19.3399052695533 C30.995453374092417 -19.275190097568487, 31.39573959533697 -19.21047492558368, 31.82915575967676 -19.140403561325776 M31.82915575967676 -19.140403561325776 C32.09531741412014 -19.07965390056619, 32.36147906856352 -19.018904239806602, 33.04782688623539 -18.862249829261074 M31.82915575967676 -19.140403561325776 C32.232522005008214 -19.048337848039615, 32.635888250339676 -18.95627213475345, 33.04782688623539 -18.862249829261074 M33.04782688623539 -18.862249829261074 C33.43887140303515 -18.74618986930946, 33.82991591983492 -18.630129909357848, 34.246172751460605 -18.50658706670804 M33.04782688623539 -18.862249829261074 C33.496735509803486 -18.729016106155516, 33.94564413337157 -18.595782383049954, 34.246172751460605 -18.50658706670804 M34.246172751460605 -18.50658706670804 C34.67444654487917 -18.348978351810462, 35.10272033829773 -18.19136963691288, 35.4192690951478 -18.074876768247425 M34.246172751460605 -18.50658706670804 C34.56800705182207 -18.38814906917136, 34.88984135218354 -18.26971107163468, 35.4192690951478 -18.074876768247425 M35.4192690951478 -18.074876768247425 C35.82110035373359 -17.896997989972263, 36.222931612319385 -17.7191192116971, 36.56229541279238 -17.568892924097174 M35.4192690951478 -18.074876768247425 C35.85437919759469 -17.882266432976785, 36.28948930004158 -17.689656097706145, 36.56229541279238 -17.568892924097174 M36.56229541279238 -17.568892924097174 C36.87876008156035 -17.40379350910622, 37.195224750328315 -17.238694094115267, 37.67055476407678 -16.990714730406097 M36.56229541279238 -17.568892924097174 C36.78470282999896 -17.45286311699925, 37.00711024720554 -17.33683330990133, 37.67055476407678 -16.990714730406097 M37.67055476407678 -16.990714730406097 C37.98764637567771 -16.798491932016468, 38.304737987278635 -16.60626913362684, 38.7394930736057 -16.342718045390892 M37.67055476407678 -16.990714730406097 C37.98894146027372 -16.797706844123603, 38.30732815647065 -16.604698957841112, 38.7394930736057 -16.342718045390892 M38.7394930736057 -16.342718045390892 C38.98440533838602 -16.171877851561213, 39.22931760316633 -16.00103765773153, 39.76471784457871 -15.627565626425154 M38.7394930736057 -16.342718045390892 C39.093200276693445 -16.095987212254922, 39.44690747978119 -15.849256379118954, 39.76471784457871 -15.627565626425154 M39.76471784457871 -15.627565626425154 C40.02247395057592 -15.422011991070429, 40.280230056573124 -15.216458355715703, 40.742016208501866 -14.848196188198123 M39.76471784457871 -15.627565626425154 C40.10603919797454 -15.355370930034654, 40.447360551370366 -15.083176233644155, 40.742016208501866 -14.848196188198123 M40.742016208501866 -14.848196188198123 C41.04649605736321 -14.5716756455576, 41.35097590622454 -14.295155102917075, 41.66737223676799 -14.007812326905688 M40.742016208501866 -14.848196188198123 C41.02297408734577 -14.593037676370207, 41.30393196618968 -14.337879164542288, 41.66737223676799 -14.007812326905688 M41.66737223676799 -14.007812326905688 C41.917885966394785 -13.74913633350631, 42.16839969602159 -13.490460340106932, 42.53698344296865 -13.10986736009568 M41.66737223676799 -14.007812326905688 C41.85625472022923 -13.812775655191658, 42.04513720369048 -13.617738983477627, 42.53698344296865 -13.10986736009568 M42.53698344296865 -13.10986736009568 C42.77972242594685 -12.824732338450072, 43.02246140892505 -12.539597316804466, 43.34727640812658 -12.158051136245305 M42.53698344296865 -13.10986736009568 C42.7284998823044 -12.884901252857793, 42.920016321640155 -12.659935145619905, 43.34727640812658 -12.158051136245305 M43.34727640812658 -12.158051136245305 C43.546103250568784 -11.891641280870735, 43.74493009301098 -11.625231425496162, 44.094921464640635 -11.156274872382312 M43.34727640812658 -12.158051136245305 C43.64278376830438 -11.762098194881387, 43.93829112848218 -11.366145253517471, 44.094921464640635 -11.156274872382312 M44.094921464640635 -11.156274872382312 C44.336791243249884 -10.784697941308934, 44.57866102185913 -10.413121010235555, 44.77684637860425 -10.108655082055241 M44.094921464640635 -11.156274872382312 C44.31039826214878 -10.825244647788004, 44.52587505965692 -10.494214423193696, 44.77684637860425 -10.108655082055241 M44.77684637860425 -10.108655082055241 C44.908374341446724 -9.875113865377962, 45.0399023042892 -9.64157264870068, 45.390248974273504 -9.019496659696287 M44.77684637860425 -10.108655082055241 C44.99836953993973 -9.715318277451603, 45.219892701275214 -9.321981472847964, 45.390248974273504 -9.019496659696287 M45.390248974273504 -9.019496659696287 C45.526487600629856 -8.736594237027694, 45.66272622698621 -8.453691814359102, 45.93260864880834 -7.893275190886684 M45.390248974273504 -9.019496659696287 C45.53664248450451 -8.715507403382261, 45.683035994735526 -8.411518147068238, 45.93260864880834 -7.893275190886684 M45.93260864880834 -7.893275190886684 C46.106609754831304 -7.4634890949274295, 46.280610860854274 -7.033702998968174, 46.401696729970325 -6.734618561215508 M45.93260864880834 -7.893275190886684 C46.079915429815095 -7.52942459381714, 46.22722221082185 -7.165573996747595, 46.401696729970325 -6.734618561215508 M46.401696729970325 -6.734618561215508 C46.51767371438561 -6.385314362579732, 46.633650698800885 -6.036010163943956, 46.79558563421488 -5.548287939305138 M46.401696729970325 -6.734618561215508 C46.52811755778152 -6.353859170271705, 46.654538385592716 -5.973099779327902, 46.79558563421488 -5.548287939305138 M46.79558563421488 -5.548287939305138 C46.873630522109046 -5.250668956896299, 46.95167541000322 -4.9530499744874605, 47.11265678754556 -4.339158212148133 M46.79558563421488 -5.548287939305138 C46.91269671521511 -5.101692631187682, 47.029807796215344 -4.655097323070225, 47.11265678754556 -4.339158212148133 M47.11265678754556 -4.339158212148133 C47.177714965432706 -4.005098218748401, 47.24277314331985 -3.6710382253486693, 47.351607276581774 -3.1121979531509023 M47.11265678754556 -4.339158212148133 C47.20068279214028 -3.8871632828569274, 47.28870879673499 -3.4351683535657216, 47.351607276581774 -3.1121979531509023 M47.351607276581774 -3.1121979531509023 C47.388645663190516 -2.8249355406702295, 47.42568404979926 -2.5376731281895566, 47.51145520250937 -1.872449005199798 M47.351607276581774 -3.1121979531509023 C47.38483331088864 -2.8545033922894816, 47.4180593451955 -2.596808831428061, 47.51145520250937 -1.872449005199798 M47.51145520250937 -1.872449005199798 C47.54222187640998 -1.393233224785512, 47.572988550310605 -0.9140174443712261, 47.59154371591342 -0.6250057626472757 M47.51145520250937 -1.872449005199798 C47.53222496430736 -1.5489432001460721, 47.552994726105354 -1.2254373950923465, 47.59154371591342 -0.6250057626472757 M47.59154371591342 -0.6250057626472757 C47.59154371591342 -0.1768316489061279, 47.59154371591342 0.2713424648350199, 47.59154371591342 0.625005762647271 M47.59154371591342 -0.6250057626472757 C47.59154371591342 -0.24533505292783653, 47.59154371591342 0.13433565679160264, 47.59154371591342 0.625005762647271 M47.59154371591342 0.625005762647271 C47.57209254231249 0.9279734921864482, 47.55264136871156 1.2309412217256255, 47.51145520250937 1.8724490051997846 M47.59154371591342 0.625005762647271 C47.57103271850046 0.9444811035332161, 47.5505217210875 1.2639564444191613, 47.51145520250937 1.8724490051997846 M47.51145520250937 1.8724490051997846 C47.45741945643395 2.291539581195682, 47.40338371035855 2.710630157191579, 47.351607276581774 3.1121979531508885 M47.51145520250937 1.8724490051997846 C47.461554921029084 2.2594657344357083, 47.4116546395488 2.646482463671632, 47.351607276581774 3.1121979531508885 M47.351607276581774 3.1121979531508885 C47.26689522450974 3.5471764366422467, 47.1821831724377 3.982154920133605, 47.11265678754556 4.339158212148129 M47.351607276581774 3.1121979531508885 C47.28215554128431 3.4688179352739064, 47.21270380598685 3.8254379173969237, 47.11265678754556 4.339158212148129 M47.11265678754556 4.339158212148129 C47.01537521419937 4.710135013417747, 46.91809364085318 5.081111814687366, 46.79558563421489 5.548287939305125 M47.11265678754556 4.339158212148129 C46.99006857902716 4.80664018129445, 46.86748037050876 5.274122150440772, 46.79558563421489 5.548287939305125 M46.79558563421489 5.548287939305125 C46.64512255304332 6.0014587667574855, 46.494659471871756 6.454629594209846, 46.401696729970325 6.734618561215495 M46.79558563421489 5.548287939305125 C46.68038049878023 5.895267451788702, 46.56517536334557 6.242246964272278, 46.401696729970325 6.734618561215495 M46.401696729970325 6.734618561215495 C46.23058800121532 7.157260429402586, 46.05947927246031 7.579902297589678, 45.93260864880834 7.893275190886679 M46.401696729970325 6.734618561215495 C46.2436595208386 7.124973523212446, 46.08562231170687 7.515328485209396, 45.93260864880834 7.893275190886679 M45.93260864880834 7.893275190886679 C45.78346820305203 8.202968517593995, 45.63432775729572 8.51266184430131, 45.390248974273504 9.019496659696284 M45.93260864880834 7.893275190886679 C45.74530757234117 8.2822098837718, 45.55800649587399 8.671144576656923, 45.390248974273504 9.019496659696284 M45.390248974273504 9.019496659696284 C45.17231934580591 9.406452782808326, 44.954389717338316 9.79340890592037, 44.77684637860425 10.108655082055236 M45.390248974273504 9.019496659696284 C45.18388320674605 9.385919976741208, 44.977517439218595 9.752343293786133, 44.77684637860425 10.108655082055236 M44.77684637860425 10.108655082055236 C44.58831975843609 10.398282597119413, 44.39979313826794 10.687910112183593, 44.09492146464064 11.156274872382301 M44.77684637860425 10.108655082055236 C44.60517763965728 10.372384364588726, 44.433508900710315 10.636113647122217, 44.09492146464064 11.156274872382301 M44.09492146464064 11.156274872382301 C43.81783275000758 11.527548506689396, 43.54074403537452 11.89882214099649, 43.34727640812658 12.158051136245302 M44.09492146464064 11.156274872382301 C43.80482497720455 11.544977737212985, 43.514728489768444 11.93368060204367, 43.34727640812658 12.158051136245302 M43.34727640812658 12.158051136245302 C43.10586339527041 12.44162859793574, 42.86445038241424 12.72520605962618, 42.53698344296866 13.10986736009567 M43.34727640812658 12.158051136245302 C43.15129546991727 12.388261497897252, 42.95531453170797 12.618471859549201, 42.53698344296866 13.10986736009567 M42.53698344296866 13.10986736009567 C42.198234301797704 13.4596536601764, 41.85948516062675 13.809439960257132, 41.66737223676799 14.007812326905684 M42.53698344296866 13.10986736009567 C42.19560694487372 13.462366621910432, 41.85423044677878 13.814865883725195, 41.66737223676799 14.007812326905684 M41.66737223676799 14.007812326905684 C41.44967101605234 14.205522815500974, 41.2319697953367 14.403233304096265, 40.74201620850189 14.848196188198111 M41.66737223676799 14.007812326905684 C41.35336748230376 14.292983136799567, 41.03936272783953 14.578153946693448, 40.74201620850189 14.848196188198111 M40.74201620850189 14.848196188198111 C40.372608314829684 15.142789153044793, 40.00320042115748 15.437382117891476, 39.76471784457871 15.627565626425152 M40.74201620850189 14.848196188198111 C40.36235608999765 15.150965029525182, 39.982695971493406 15.453733870852252, 39.76471784457871 15.627565626425152 M39.76471784457871 15.627565626425152 C39.54347512120572 15.78189497280702, 39.32223239783272 15.936224319188888, 38.73949307360571 16.34271804539089 M39.76471784457871 15.627565626425152 C39.48820412639018 15.820449626147536, 39.21169040820165 16.01333362586992, 38.73949307360571 16.34271804539089 M38.73949307360571 16.34271804539089 C38.32431304220433 16.59440262029509, 37.90913301080295 16.846087195199292, 37.67055476407678 16.990714730406093 M38.73949307360571 16.34271804539089 C38.46088463374467 16.511612118919576, 38.18227619388364 16.680506192448263, 37.67055476407678 16.990714730406093 M37.67055476407678 16.990714730406093 C37.36071676362671 17.152357016780183, 37.05087876317664 17.313999303154276, 36.56229541279239 17.56889292409717 M37.67055476407678 16.990714730406093 C37.43991562564778 17.111039021193086, 37.20927648721877 17.231363311980083, 36.56229541279239 17.56889292409717 M36.56229541279239 17.56889292409717 C36.290685918566005 17.689126390181812, 36.019076424339616 17.80935985626645, 35.419269095147804 18.07487676824742 M36.56229541279239 17.56889292409717 C36.10951159693781 17.76932688802131, 35.656727781083234 17.969760851945452, 35.419269095147804 18.07487676824742 M35.419269095147804 18.07487676824742 C35.13318910886366 18.18015684769439, 34.84710912257952 18.285436927141358, 34.24617275146062 18.506587066708033 M35.419269095147804 18.07487676824742 C34.970699265148866 18.239954612221084, 34.52212943514993 18.405032456194746, 34.24617275146062 18.506587066708033 M34.24617275146062 18.506587066708033 C33.7829974861231 18.64405505420363, 33.31982222078558 18.781523041699224, 33.04782688623541 18.86224982926107 M34.24617275146062 18.506587066708033 C33.82830860535557 18.630606951858347, 33.41044445925053 18.754626837008665, 33.04782688623541 18.86224982926107 M33.04782688623541 18.86224982926107 C32.69109668946926 18.943671168790857, 32.33436649270311 19.025092508320647, 31.829155759676766 19.140403561325773 M33.04782688623541 18.86224982926107 C32.71477054747802 18.93826776518672, 32.38171420872063 19.01428570111237, 31.829155759676766 19.140403561325773 M31.829155759676766 19.140403561325773 C31.446101568137294 19.202332792384254, 31.06304737659782 19.264262023442733, 30.59516715284788 19.3399052695533 M31.829155759676766 19.140403561325773 C31.339076159615853 19.21963583043956, 30.84899655955494 19.29886809955335, 30.59516715284788 19.3399052695533 M30.59516715284788 19.3399052695533 C30.26724341770171 19.37153967789686, 29.939319682555542 19.403174086240416, 29.3509317896239 19.45993515863156 M30.59516715284788 19.3399052695533 C30.325014147818482 19.36596660504196, 30.054861142789083 19.39202794053062, 29.3509317896239 19.45993515863156 M29.3509317896239 19.45993515863156 C28.918177025725672 19.473812761603728, 28.48542226182745 19.487690364575894, 28.101562500000004 19.5 M29.3509317896239 19.45993515863156 C29.095854252888895 19.468114998756345, 28.840776716153893 19.47629483888113, 28.101562500000004 19.5 M28.101562500000004 19.5 C28.101562500000004 19.5, 28.101562500000004 19.5, 28.1015625 19.5 M28.101562500000004 19.5 C28.101562500000004 19.5, 28.1015625 19.5, 28.1015625 19.5 M28.1015625 19.5 C14.148803009750573 19.5, 0.19604351950114562 19.5, -28.101562499999996 19.5 M28.1015625 19.5 C15.770345682435233 19.5, 3.439128864870465 19.5, -28.101562499999996 19.5 M-28.101562499999996 19.5 C-28.463369303072373 19.48839756003969, -28.825176106144745 19.476795120079377, -29.350931789623893 19.45993515863156 M-28.101562499999996 19.5 C-28.374620982178396 19.49124354595263, -28.64767946435679 19.482487091905263, -29.350931789623893 19.45993515863156 M-29.350931789623893 19.45993515863156 C-29.70911723198594 19.425381439787913, -30.067302674347985 19.390827720944266, -30.59516715284787 19.3399052695533 M-29.350931789623893 19.45993515863156 C-29.844136849529896 19.412356259668293, -30.337341909435896 19.36477736070503, -30.59516715284787 19.3399052695533 M-30.59516715284787 19.3399052695533 C-30.850581438179038 19.29861186866832, -31.105995723510205 19.257318467783342, -31.82915575967676 19.140403561325773 M-30.59516715284787 19.3399052695533 C-30.932656384787116 19.285342627801445, -31.270145616726357 19.23077998604959, -31.82915575967676 19.140403561325773 M-31.82915575967676 19.140403561325773 C-32.145289588425904 19.068248077879808, -32.46142341717504 18.996092594433843, -33.047826886235384 18.862249829261074 M-31.82915575967676 19.140403561325773 C-32.12304689076769 19.073324828473126, -32.41693802185863 19.006246095620483, -33.047826886235384 18.862249829261074 M-33.047826886235384 18.862249829261074 C-33.469799183033984 18.737010666549036, -33.891771479832585 18.611771503836998, -34.24617275146059 18.506587066708043 M-33.047826886235384 18.862249829261074 C-33.414543529533375 18.753410254465173, -33.78126017283137 18.644570679669272, -34.24617275146059 18.506587066708043 M-34.24617275146059 18.506587066708043 C-34.48626912019452 18.418229383587455, -34.726365488928444 18.329871700466867, -35.4192690951478 18.074876768247425 M-34.24617275146059 18.506587066708043 C-34.66563397732674 18.352221458132234, -35.08509520319289 18.197855849556426, -35.4192690951478 18.074876768247425 M-35.4192690951478 18.074876768247425 C-35.835765247066156 17.890506276712543, -36.252261398984515 17.706135785177658, -36.56229541279238 17.568892924097174 M-35.4192690951478 18.074876768247425 C-35.86149143016781 17.879118058593548, -36.30371376518783 17.683359348939668, -36.56229541279238 17.568892924097174 M-36.56229541279238 17.568892924097174 C-36.95638987004744 17.36329409817676, -37.350484327302496 17.157695272256344, -37.67055476407678 16.990714730406097 M-36.56229541279238 17.568892924097174 C-36.80463915684616 17.442462348052896, -37.04698290089993 17.31603177200862, -37.67055476407678 16.990714730406097 M-37.67055476407678 16.990714730406097 C-37.91573839214959 16.84208297420943, -38.1609220202224 16.693451218012758, -38.739493073605686 16.3427180453909 M-37.67055476407678 16.990714730406097 C-38.04863875641186 16.761517992384412, -38.42672274874693 16.532321254362724, -38.739493073605686 16.3427180453909 M-38.739493073605686 16.3427180453909 C-39.08758448660189 16.099904544319152, -39.435675899598095 15.857091043247406, -39.76471784457871 15.627565626425156 M-38.739493073605686 16.3427180453909 C-39.08157355376014 16.104097510860473, -39.42365403391459 15.865476976330047, -39.76471784457871 15.627565626425156 M-39.76471784457871 15.627565626425156 C-40.04792287622144 15.40171715009248, -40.331127907864165 15.175868673759807, -40.742016208501866 14.848196188198125 M-39.76471784457871 15.627565626425156 C-40.11645653230732 15.347063383121174, -40.46819522003592 15.066561139817193, -40.742016208501866 14.848196188198125 M-40.742016208501866 14.848196188198125 C-41.07061878498127 14.54976802258727, -41.399221361460675 14.251339856976413, -41.667372236767974 14.007812326905697 M-40.742016208501866 14.848196188198125 C-40.94336267601997 14.665338653733786, -41.14470914353807 14.482481119269444, -41.667372236767974 14.007812326905697 M-41.667372236767974 14.007812326905697 C-41.97173411462644 13.69353369944193, -42.27609599248492 13.379255071978166, -42.536983442968655 13.109867360095677 M-41.667372236767974 14.007812326905697 C-41.894279792733776 13.7735116459142, -42.12118734869958 13.539210964922704, -42.536983442968655 13.109867360095677 M-42.536983442968655 13.109867360095677 C-42.840407060628046 12.753448713500008, -43.14383067828743 12.39703006690434, -43.347276408126575 12.158051136245307 M-42.536983442968655 13.109867360095677 C-42.76944674495109 12.836802738050501, -43.00191004693353 12.563738116005327, -43.347276408126575 12.158051136245307 M-43.347276408126575 12.158051136245307 C-43.58446248413195 11.840243402494158, -43.82164856013731 11.522435668743011, -44.094921464640635 11.156274872382316 M-43.347276408126575 12.158051136245307 C-43.588370322170164 11.835007255534313, -43.82946423621375 11.511963374823319, -44.094921464640635 11.156274872382316 M-44.094921464640635 11.156274872382316 C-44.31159468001136 10.823406628667906, -44.52826789538208 10.490538384953496, -44.77684637860425 10.108655082055249 M-44.094921464640635 11.156274872382316 C-44.3213839475744 10.808367684904674, -44.54784643050816 10.46046049742703, -44.77684637860425 10.108655082055249 M-44.77684637860425 10.108655082055249 C-45.00856237295163 9.697219870302717, -45.24027836729901 9.285784658550186, -45.390248974273504 9.019496659696289 M-44.77684637860425 10.108655082055249 C-44.969525955142004 9.766532982989641, -45.16220553167977 9.424410883924033, -45.390248974273504 9.019496659696289 M-45.390248974273504 9.019496659696289 C-45.5037786458434 8.78374986753557, -45.6173083174133 8.54800307537485, -45.93260864880834 7.893275190886686 M-45.390248974273504 9.019496659696289 C-45.59986476766697 8.584224979655257, -45.80948056106045 8.148953299614227, -45.93260864880834 7.893275190886686 M-45.93260864880834 7.893275190886686 C-46.08153325410651 7.525428536538837, -46.23045785940468 7.157581882190988, -46.401696729970325 6.73461856121551 M-45.93260864880834 7.893275190886686 C-46.113087051783786 7.447490046224787, -46.29356545475923 7.001704901562888, -46.401696729970325 6.73461856121551 M-46.401696729970325 6.73461856121551 C-46.54813008791346 6.293584618077982, -46.69456344585658 5.852550674940453, -46.79558563421488 5.5482879393051325 M-46.401696729970325 6.73461856121551 C-46.55036379686021 6.2868570426235415, -46.699030863750096 5.839095524031573, -46.79558563421488 5.5482879393051325 M-46.79558563421488 5.5482879393051325 C-46.914211395341034 5.095916499401032, -47.03283715646718 4.643545059496931, -47.11265678754556 4.339158212148136 M-46.79558563421488 5.5482879393051325 C-46.91219631805487 5.103600862433188, -47.028807001894855 4.658913785561244, -47.11265678754556 4.339158212148136 M-47.11265678754556 4.339158212148136 C-47.18160904338503 3.9851029514768865, -47.2505612992245 3.6310476908056377, -47.351607276581774 3.112197953150904 M-47.11265678754556 4.339158212148136 C-47.16168991850196 4.087383447842901, -47.210723049458366 3.835608683537667, -47.351607276581774 3.112197953150904 M-47.351607276581774 3.112197953150904 C-47.393034817916096 2.790894123355239, -47.434462359250425 2.469590293559574, -47.51145520250937 1.872449005199809 M-47.351607276581774 3.112197953150904 C-47.398921373606306 2.7452391598538686, -47.446235470630846 2.3782803665568335, -47.51145520250937 1.872449005199809 M-47.51145520250937 1.872449005199809 C-47.54326852991983 1.3769307515262075, -47.57508185733029 0.881412497852606, -47.59154371591342 0.6250057626472781 M-47.51145520250937 1.872449005199809 C-47.535973797254094 1.4905521009971898, -47.56049239199883 1.1086551967945708, -47.59154371591342 0.6250057626472781 M-47.59154371591342 0.6250057626472781 C-47.59154371591342 0.23286760226578035, -47.59154371591342 -0.15927055811571744, -47.59154371591342 -0.6250057626472687 M-47.59154371591342 0.6250057626472781 C-47.59154371591342 0.12804327268480453, -47.59154371591342 -0.3689192172776691, -47.59154371591342 -0.6250057626472687 M-47.59154371591342 -0.6250057626472687 C-47.56409080229049 -1.0526070519174686, -47.53663788866755 -1.4802083411876683, -47.51145520250937 -1.8724490051997822 M-47.59154371591342 -0.6250057626472687 C-47.57181279700879 -0.9323307510979387, -47.55208187810416 -1.2396557395486087, -47.51145520250937 -1.8724490051997822 M-47.51145520250937 -1.8724490051997822 C-47.47744767567889 -2.136204667751215, -47.44344014884841 -2.399960330302648, -47.351607276581774 -3.112197953150895 M-47.51145520250937 -1.8724490051997822 C-47.45496172196221 -2.310601284423948, -47.39846824141506 -2.748753563648114, -47.351607276581774 -3.112197953150895 M-47.351607276581774 -3.112197953150895 C-47.260209096282004 -3.581508291977955, -47.16881091598224 -4.050818630805015, -47.11265678754556 -4.339158212148126 M-47.351607276581774 -3.112197953150895 C-47.28000078224317 -3.4798821675417018, -47.20839428790456 -3.847566381932508, -47.11265678754556 -4.339158212148126 M-47.11265678754556 -4.339158212148126 C-47.00146684288927 -4.763173661149408, -46.89027689823298 -5.18718911015069, -46.79558563421489 -5.548287939305123 M-47.11265678754556 -4.339158212148126 C-47.04451217492681 -4.599023154125366, -46.976367562308056 -4.858888096102606, -46.79558563421489 -5.548287939305123 M-46.79558563421489 -5.548287939305123 C-46.647630500243274 -5.993905229378353, -46.49967536627167 -6.439522519451583, -46.40169672997033 -6.734618561215485 M-46.79558563421489 -5.548287939305123 C-46.67943616769 -5.898111626573753, -46.563286701165104 -6.247935313842384, -46.40169672997033 -6.734618561215485 M-46.40169672997033 -6.734618561215485 C-46.26779495300397 -7.065358539137132, -46.13389317603762 -7.39609851705878, -45.93260864880834 -7.893275190886676 M-46.40169672997033 -6.734618561215485 C-46.30548088590058 -6.97227355627458, -46.20926504183082 -7.209928551333674, -45.93260864880834 -7.893275190886676 M-45.93260864880834 -7.893275190886676 C-45.81116210085717 -8.145461546247134, -45.689715552905994 -8.397647901607593, -45.390248974273504 -9.019496659696282 M-45.93260864880834 -7.893275190886676 C-45.79844905721311 -8.171860453389582, -45.66428946561788 -8.450445715892489, -45.390248974273504 -9.019496659696282 M-45.390248974273504 -9.019496659696282 C-45.23025438459287 -9.303583254883257, -45.07025979491223 -9.587669850070233, -44.77684637860425 -10.108655082055243 M-45.390248974273504 -9.019496659696282 C-45.18346057148858 -9.386670408437313, -44.97667216870365 -9.753844157178344, -44.77684637860425 -10.108655082055243 M-44.77684637860425 -10.108655082055243 C-44.51451528800476 -10.511666082977216, -44.25218419740528 -10.91467708389919, -44.09492146464064 -11.156274872382308 M-44.77684637860425 -10.108655082055243 C-44.576910034273794 -10.415810997372645, -44.376973689943334 -10.722966912690046, -44.09492146464064 -11.156274872382308 M-44.09492146464064 -11.156274872382308 C-43.82272910322127 -11.520987839450017, -43.5505367418019 -11.885700806517725, -43.34727640812659 -12.158051136245302 M-44.09492146464064 -11.156274872382308 C-43.808607773618085 -11.539909134638688, -43.522294082595536 -11.923543396895067, -43.34727640812659 -12.158051136245302 M-43.34727640812659 -12.158051136245302 C-43.14617025311152 -12.394281869190397, -42.945064098096445 -12.630512602135495, -42.53698344296866 -13.10986736009567 M-43.34727640812659 -12.158051136245302 C-43.140215169511805 -12.401277049240472, -42.93315393089703 -12.644502962235643, -42.53698344296866 -13.10986736009567 M-42.53698344296866 -13.10986736009567 C-42.254247192825474 -13.401815751446353, -41.97151094268228 -13.693764142797038, -41.667372236767996 -14.007812326905677 M-42.53698344296866 -13.10986736009567 C-42.19392681686221 -13.464101492023392, -41.85087019075576 -13.818335623951112, -41.667372236767996 -14.007812326905677 M-41.667372236767996 -14.007812326905677 C-41.401219542550834 -14.249525161779308, -41.135066848333665 -14.49123799665294, -40.74201620850189 -14.848196188198107 M-41.667372236767996 -14.007812326905677 C-41.43132755316 -14.222181863158367, -41.195282869552 -14.436551399411059, -40.74201620850189 -14.848196188198107 M-40.74201620850189 -14.848196188198107 C-40.395392951787294 -15.124619011395751, -40.0487696950727 -15.401041834593396, -39.76471784457872 -15.627565626425149 M-40.74201620850189 -14.848196188198107 C-40.41927992010592 -15.10556978982057, -40.09654363170995 -15.362943391443034, -39.76471784457872 -15.627565626425149 M-39.76471784457872 -15.627565626425149 C-39.414072953812365 -15.872160323051084, -39.063428063046004 -16.11675501967702, -38.739493073605715 -16.342718045390885 M-39.76471784457872 -15.627565626425149 C-39.429746374787925 -15.861227223069992, -39.094774904997124 -16.094888819714836, -38.739493073605715 -16.342718045390885 M-38.739493073605715 -16.342718045390885 C-38.40292541786361 -16.54674733619284, -38.0663577621215 -16.750776626994792, -37.67055476407679 -16.99071473040609 M-38.739493073605715 -16.342718045390885 C-38.457606942885064 -16.513599074380522, -38.175720812164414 -16.684480103370156, -37.67055476407679 -16.99071473040609 M-37.67055476407679 -16.99071473040609 C-37.3231164680646 -17.171973066890803, -36.975678172052405 -17.353231403375514, -36.56229541279239 -17.56889292409717 M-37.67055476407679 -16.99071473040609 C-37.23653260732529 -17.21714381157889, -36.80251045057378 -17.443572892751693, -36.56229541279239 -17.56889292409717 M-36.56229541279239 -17.56889292409717 C-36.1624165612042 -17.745907429710584, -35.76253770961601 -17.922921935324002, -35.419269095147804 -18.07487676824742 M-36.56229541279239 -17.56889292409717 C-36.31799793092755 -17.677036172491416, -36.07370044906271 -17.78517942088566, -35.419269095147804 -18.07487676824742 M-35.419269095147804 -18.07487676824742 C-34.96240989309027 -18.24300517776476, -34.50555069103273 -18.411133587282105, -34.24617275146062 -18.506587066708033 M-35.419269095147804 -18.07487676824742 C-35.178465312256954 -18.16349478631702, -34.9376615293661 -18.252112804386623, -34.24617275146062 -18.506587066708033 M-34.24617275146062 -18.506587066708033 C-33.82597626158558 -18.63129917924656, -33.40577977171054 -18.756011291785086, -33.04782688623541 -18.862249829261067 M-34.24617275146062 -18.506587066708033 C-33.8819837356954 -18.614676454919994, -33.51779471993018 -18.72276584313196, -33.04782688623541 -18.862249829261067 M-33.04782688623541 -18.862249829261067 C-32.74048157473876 -18.932399390994586, -32.43313626324211 -19.002548952728105, -31.829155759676766 -19.140403561325773 M-33.04782688623541 -18.862249829261067 C-32.568262158343174 -18.971707348950158, -32.08869743045094 -19.08116486863925, -31.829155759676766 -19.140403561325773 M-31.829155759676766 -19.140403561325773 C-31.49501075718876 -19.19442553399484, -31.16086575470075 -19.248447506663904, -30.595167152847882 -19.3399052695533 M-31.829155759676766 -19.140403561325773 C-31.385738326962375 -19.212091853093487, -30.942320894247985 -19.283780144861204, -30.595167152847882 -19.3399052695533 M-30.595167152847882 -19.3399052695533 C-30.192357597442765 -19.378763822913864, -29.789548042037648 -19.417622376274426, -29.350931789623903 -19.45993515863156 M-30.595167152847882 -19.3399052695533 C-30.159620433281077 -19.38192193776834, -29.724073713714272 -19.42393860598338, -29.350931789623903 -19.45993515863156 M-29.350931789623903 -19.45993515863156 C-28.892241757464454 -19.47464445517693, -28.433551725305005 -19.489353751722295, -28.101562500000007 -19.5 M-29.350931789623903 -19.45993515863156 C-28.96212018188639 -19.472403590115817, -28.573308574148882 -19.484872021600076, -28.101562500000007 -19.5 M-28.101562500000007 -19.5 C-28.101562500000004 -19.5, -28.101562500000004 -19.5, -28.1015625 -19.5 M-28.101562500000007 -19.5 C-28.101562500000004 -19.5, -28.101562500000004 -19.5, -28.1015625 -19.5" stroke="#9370DB" stroke-width="1.3" fill="none" stroke-dasharray="0 0" style=""/></g><g class="label" style="" transform="translate(-35.2265625, -12)"><rect/><foreignObject width="70.453125" height="24"><div xmlns="http://www.w3.org/1999/xhtml" style="display: table-cell; white-space: nowrap; line-height: 1.5; max-width: 200px; text-align: center;"><span class="nodeLabel"><p>New work</p></span></div></foreignObject></g></g><g class="node default" id="my-svg-flowchart-B-1" data-look="classic" transform="translate(188.3984375, 248)"><polygon points="151,0 302,-151 151,-302 0,-151" class="label-container" transform="translate(-150.5, 151)"/><g class="label" style="" transform="translate(-100, -36)"><rect/><foreignObject width="200" height="72"><div xmlns="http://www.w3.org/1999/xhtml" style="display: table; white-space: break-spaces; line-height: 1.5; max-width: 200px; text-align: center; width: 200px;"><span class="nodeLabel"><p>Greenfield, major upgrade, or systemic change?</p></span></div></foreignObject></g></g><g class="node default" id="my-svg-flowchart-G-3" data-look="classic" transform="translate(65.265625, 612)"><rect class="basic label-container" style="" x="-57.265625" y="-27" width="114.53125" height="54"/><g class="label" style="" transform="translate(-27.265625, -12)"><rect/><foreignObject width="54.53125" height="24"><div xmlns="http://www.w3.org/1999/xhtml" style="display: table-cell; white-space: nowrap; line-height: 1.5; max-width: 200px; text-align: center;"><span class="nodeLabel"><p>Genesis</p></span></div></foreignObject></g></g><g class="node default" id="my-svg-flowchart-C-5" data-look="classic" transform="translate(311.53125, 612)"><polygon points="139,0 278,-139 139,-278 0,-139" class="label-container" transform="translate(-138.5, 139)"/><g class="label" style="" transform="translate(-100, -24)"><rect/><foreignObject width="200" height="48"><div xmlns="http://www.w3.org/1999/xhtml" style="display: table; white-space: break-spaces; line-height: 1.5; max-width: 200px; text-align: center; width: 200px;"><span class="nodeLabel"><p>Changes code or behavior already shipped?</p></span></div></foreignObject></g></g><g class="node default" id="my-svg-flowchart-D-7" data-look="classic" transform="translate(192.52734375, 964)"><rect class="basic label-container" style="" x="-49.0078125" y="-27" width="98.015625" height="54"/><g class="label" style="" transform="translate(-19.0078125, -12)"><rect/><foreignObject width="38.015625" height="24"><div xmlns="http://www.w3.org/1999/xhtml" style="display: table-cell; white-space: nowrap; line-height: 1.5; max-width: 200px; text-align: center;"><span class="nodeLabel"><p>Delta</p></span></div></foreignObject></g></g><g class="node default" id="my-svg-flowchart-E-9" data-look="classic" transform="translate(430.53515625, 964)"><polygon points="139,0 278,-139 139,-278 0,-139" class="label-container" transform="translate(-138.5, 139)"/><g class="label" style="" transform="translate(-100, -24)"><rect/><foreignObject width="200" height="48"><div xmlns="http://www.w3.org/1999/xhtml" style="display: table; white-space: break-spaces; line-height: 1.5; max-width: 200px; text-align: center; width: 200px;"><span class="nodeLabel"><p>Isolated feature with its own scope?</p></span></div></foreignObject></g></g><g class="node default" id="my-svg-flowchart-P-11" data-look="classic" transform="translate(309.02734375, 1216)"><rect class="basic label-container" style="" x="-63.015625" y="-27" width="126.03125" height="54"/><g class="label" style="" transform="translate(-33.015625, -12)"><rect/><foreignObject width="66.03125" height="24"><div xmlns="http://www.w3.org/1999/xhtml" style="display: table-cell; white-space: nowrap; line-height: 1.5; max-width: 200px; text-align: center;"><span class="nodeLabel"><p>Blueprint</p></span></div></foreignObject></g></g><g class="node default" id="my-svg-flowchart-F-13" data-look="classic" transform="translate(552.04296875, 1216)"><rect class="basic label-container" style="" x="-130" y="-39" width="260" height="78"/><g class="label" style="" transform="translate(-100, -24)"><rect/><foreignObject width="200" height="48"><div xmlns="http://www.w3.org/1999/xhtml" style="display: table; white-space: break-spaces; line-height: 1.5; max-width: 200px; text-align: center; width: 200px;"><span class="nodeLabel"><p>Flash: small local-only change</p></span></div></foreignObject></g></g></g></g></g><defs><filter id="my-svg-drop-shadow" height="130%" width="130%"><feDropShadow dx="4" dy="4" stdDeviation="0" flood-opacity="0.06" flood-color="#000000"/></filter></defs><defs><filter id="my-svg-drop-shadow-small" height="150%" width="150%"><feDropShadow dx="2" dy="2" stdDeviation="0" flood-opacity="0.06" flood-color="#000000"/></filter></defs></svg>